STARTFONT 2.1
FONT -JDECW-Kmenu-Medium-R-Normal--12-120-75-75-P-70-ISO8859-1
SIZE 12 75 75
FONTBOUNDINGBOX 10 16 0 -2

STARTPROPERTIES 26
FONTNAME_REGISTRY ""
FAMILY_NAME "Kmenu"
FOUNDRY "JDECW"
WEIGHT_NAME "Medium"
SLANT "R"
SETWIDTH_NAME "Normal"
ADD_STYLE_NAME ""
PIXEL_SIZE 12
POINT_SIZE 120
RESOLUTION_X 75
RESOLUTION_Y 75
SPACING "P"
AVERAGE_WIDTH 70
CHARSET_REGISTRY "ISO8859"
CHARSET_ENCODING "1"
DEVICE_FONT_NAME "Kmenu-ISO8859-1"
CHARSET_COLLECTIONS "ISO8859-1"
FULL_NAME "Kmenu ISO8859-1"
COPYRIGHT "Copyright(c) 1991 Digital Equipment Corporation Japan"
CAP_HEIGHT 10
X_HEIGHT 7
WEIGHT 10
QUAD_WIDTH 6
DEFAULT_CHAR 32
FONT_DESCENT 2
FONT_ASCENT 12
ENDPROPERTIES

CHARS 224

STARTCHAR C20
ENCODING 32
SWIDTH 1000 0
DWIDTH 4 0
BBX 4 14 0 0
BITMAP
00
00
00
00
00
00
00
00
00
00
00
00
00
00
ENDCHAR

STARTCHAR C21
ENCODING 33
SWIDTH 1000 0
DWIDTH 4 0
BBX 4 14 0 -2
BITMAP
00
00
C0
C0
C0
C0
C0
C0
C0
00
C0
C0
00
00
ENDCHAR

STARTCHAR C22
ENCODING 34
SWIDTH 1000 0
DWIDTH 7 0
BBX 7 14 0 -2
BITMAP
00
00
D8
D8
D8
00
00
00
00
00
00
00
00
00
ENDCHAR

STARTCHAR C23
ENCODING 35
SWIDTH 1000 0
DWIDTH 8 0
BBX 8 14 0 -2
BITMAP
00
00
6C
6C
6C
FE
6C
6C
FE
6C
6C
6C
00
00
ENDCHAR

STARTCHAR C24
ENCODING 36
SWIDTH 1000 0
DWIDTH 8 0
BBX 8 14 0 -2
BITMAP
00
38
7C
D6
D6
D0
70
1C
16
D6
D6
7C
30
00
ENDCHAR

STARTCHAR C25
ENCODING 37
SWIDTH 1000 0
DWIDTH 8 0
BBX 8 14 0 -2
BITMAP
00
00
66
F6
FC
6C
18
30
6C
7E
DE
CC
00
00
ENDCHAR

STARTCHAR C26
ENCODING 38
SWIDTH 1000 0
DWIDTH 8 0
BBX 8 14 0 -2
BITMAP
00
00
30
78
78
76
36
76
DC
CC
CC
7E
00
00
ENDCHAR

STARTCHAR C27
ENCODING 39
SWIDTH 1000 0
DWIDTH 4 0
BBX 4 14 0 -2
BITMAP
00
00
60
60
C0
00
00
00
00
00
00
00
00
00
ENDCHAR

STARTCHAR C28
ENCODING 40
SWIDTH 1000 0
DWIDTH 4 0
BBX 4 14 0 -2
BITMAP
00
20
60
40
C0
C0
C0
C0
C0
C0
40
60
20
00
ENDCHAR

STARTCHAR C29
ENCODING 41
SWIDTH 1000 0
DWIDTH 4 0
BBX 4 14 0 -2
BITMAP
00
80
C0
40
60
60
60
60
60
60
40
C0
80
00
ENDCHAR

STARTCHAR C2a
ENCODING 42
SWIDTH 1000 0
DWIDTH 7 0
BBX 7 14 0 -2
BITMAP
00
00
00
00
30
FC
78
30
78
FC
30
00
00
00
ENDCHAR

STARTCHAR C2b
ENCODING 43
SWIDTH 1000 0
DWIDTH 7 0
BBX 7 14 0 -2
BITMAP
00
00
00
00
30
30
30
FC
30
30
30
00
00
00
ENDCHAR

STARTCHAR C2c
ENCODING 44
SWIDTH 1000 0
DWIDTH 6 0
BBX 6 14 0 -2
BITMAP
00
00
00
00
00
00
00
00
00
00
70
70
60
C0
ENDCHAR

STARTCHAR C2d
ENCODING 45
SWIDTH 1000 0
DWIDTH 7 0
BBX 7 14 0 -2
BITMAP
00
00
00
00
00
00
00
FC
00
00
00
00
00
00
ENDCHAR

STARTCHAR C2e
ENCODING 46
SWIDTH 1000 0
DWIDTH 5 0
BBX 5 14 0 -2
BITMAP
00
00
00
00
00
00
00
00
00
00
E0
E0
00
00
ENDCHAR

STARTCHAR C2f
ENCODING 47
SWIDTH 1000 0
DWIDTH 8 0
BBX 8 14 0 -2
BITMAP
00
00
06
06
0C
0C
18
30
60
60
C0
C0
00
00
ENDCHAR

STARTCHAR zero
ENCODING 48
SWIDTH 1000 0
DWIDTH 8 0
BBX 8 14 0 -2
BITMAP
00
00
3C
66
66
66
66
66
66
66
66
3C
00
00
ENDCHAR

STARTCHAR one
ENCODING 49
SWIDTH 1000 0
DWIDTH 8 0
BBX 8 14 0 -2
BITMAP
00
00
38
78
18
18
18
18
18
18
18
7E
00
00
ENDCHAR

STARTCHAR two
ENCODING 50
SWIDTH 1000 0
DWIDTH 8 0
BBX 8 14 0 -2
BITMAP
00
00
3C
66
66
06
06
0C
18
30
60
7E
00
00
ENDCHAR

STARTCHAR three
ENCODING 51
SWIDTH 1000 0
DWIDTH 8 0
BBX 8 14 0 -2
BITMAP
00
00
3C
66
06
06
3C
06
06
66
66
3C
00
00
ENDCHAR

STARTCHAR four
ENCODING 52
SWIDTH 1000 0
DWIDTH 8 0
BBX 8 14 0 -2
BITMAP
00
00
0C
0C
1C
3C
3C
6C
6C
7E
0C
0C
00
00
ENDCHAR

STARTCHAR five
ENCODING 53
SWIDTH 1000 0
DWIDTH 8 0
BBX 8 14 0 -2
BITMAP
00
00
7E
60
60
7C
66
06
06
66
66
3C
00
00
ENDCHAR

STARTCHAR six
ENCODING 54
SWIDTH 1000 0
DWIDTH 8 0
BBX 8 14 0 -2
BITMAP
00
00
3C
66
66
60
7C
66
66
66
66
3C
00
00
ENDCHAR

STARTCHAR seven
ENCODING 55
SWIDTH 1000 0
DWIDTH 8 0
BBX 8 14 0 -2
BITMAP
00
00
7E
66
66
0C
0C
0C
18
18
18
18
00
00
ENDCHAR

STARTCHAR eight
ENCODING 56
SWIDTH 1000 0
DWIDTH 8 0
BBX 8 14 0 -2
BITMAP
00
00
3C
66
66
66
3C
66
66
66
66
3C
00
00
ENDCHAR

STARTCHAR nine
ENCODING 57
SWIDTH 1000 0
DWIDTH 8 0
BBX 8 14 0 -2
BITMAP
00
00
3C
66
66
66
66
3E
06
66
66
3C
00
00
ENDCHAR

STARTCHAR C3a
ENCODING 58
SWIDTH 1000 0
DWIDTH 5 0
BBX 5 14 0 -2
BITMAP
00
00
00
E0
E0
00
00
00
00
00
E0
E0
00
00
ENDCHAR

STARTCHAR C3b
ENCODING 59
SWIDTH 1000 0
DWIDTH 6 0
BBX 6 14 0 -2
BITMAP
00
00
00
70
70
00
00
00
00
00
70
70
60
C0
ENDCHAR

STARTCHAR C3c
ENCODING 60
SWIDTH 1000 0
DWIDTH 7 0
BBX 7 14 0 -2
BITMAP
00
00
00
0C
18
30
60
C0
60
30
18
0C
00
00
ENDCHAR

STARTCHAR C3d
ENCODING 61
SWIDTH 1000 0
DWIDTH 7 0
BBX 7 14 0 -2
BITMAP
00
00
00
00
00
FC
00
00
00
FC
00
00
00
00
ENDCHAR

STARTCHAR C3e
ENCODING 62
SWIDTH 1000 0
DWIDTH 7 0
BBX 7 14 0 -2
BITMAP
00
00
00
C0
60
30
18
0C
18
30
60
C0
00
00
ENDCHAR

STARTCHAR C3f
ENCODING 63
SWIDTH 1000 0
DWIDTH 7 0
BBX 7 14 0 -2
BITMAP
00
00
78
CC
CC
CC
18
30
30
00
30
30
00
00
ENDCHAR

STARTCHAR C40
ENCODING 64
SWIDTH 1000 0
DWIDTH 9 0
BBX 9 14 0 -2
BITMAP
0000
0000
3C00
6600
CF00
DF00
D300
D300
DF00
CF00
6000
3E00
0000
0000
ENDCHAR

STARTCHAR C41
ENCODING 65
SWIDTH 1000 0
DWIDTH 8 0
BBX 8 14 0 -2
BITMAP
00
00
38
38
6C
6C
C6
FE
C6
C6
C6
C6
00
00
ENDCHAR

STARTCHAR C42
ENCODING 66
SWIDTH 1000 0
DWIDTH 8 0
BBX 8 14 0 -2
BITMAP
00
00
F8
CC
C6
CC
F8
CC
C6
C6
CC
F8
00
00
ENDCHAR

STARTCHAR C43
ENCODING 67
SWIDTH 1000 0
DWIDTH 8 0
BBX 8 14 0 -2
BITMAP
00
00
38
6C
C6
C0
C0
C0
C0
C6
6C
38
00
00
ENDCHAR

STARTCHAR C44
ENCODING 68
SWIDTH 1000 0
DWIDTH 8 0
BBX 8 14 0 -2
BITMAP
00
00
F8
CC
C6
C6
C6
C6
C6
C6
CC
F8
00
00
ENDCHAR

STARTCHAR C45
ENCODING 69
SWIDTH 1000 0
DWIDTH 8 0
BBX 8 14 0 -2
BITMAP
00
00
FE
C0
C0
C0
FC
C0
C0
C0
C0
FE
00
00
ENDCHAR

STARTCHAR C46
ENCODING 70
SWIDTH 1000 0
DWIDTH 8 0
BBX 8 14 0 -2
BITMAP
00
00
FE
C0
C0
C0
FC
C0
C0
C0
C0
C0
00
00
ENDCHAR

STARTCHAR C47
ENCODING 71
SWIDTH 1000 0
DWIDTH 8 0
BBX 8 14 0 -2
BITMAP
00
00
38
6C
C6
C0
C0
DE
C6
C6
6C
38
00
00
ENDCHAR

STARTCHAR C48
ENCODING 72
SWIDTH 1000 0
DWIDTH 8 0
BBX 8 14 0 -2
BITMAP
00
00
C6
C6
C6
C6
FE
C6
C6
C6
C6
C6
00
00
ENDCHAR

STARTCHAR C49
ENCODING 73
SWIDTH 1000 0
DWIDTH 5 0
BBX 5 14 0 -2
BITMAP
00
00
F0
60
60
60
60
60
60
60
60
F0
00
00
ENDCHAR

STARTCHAR C4a
ENCODING 74
SWIDTH 1000 0
DWIDTH 7 0
BBX 7 14 0 -2
BITMAP
00
00
7C
18
18
18
18
18
18
D8
D8
70
00
00
ENDCHAR

STARTCHAR C4b
ENCODING 75
SWIDTH 1000 0
DWIDTH 8 0
BBX 8 14 0 -2
BITMAP
00
00
C6
CC
D8
F0
F8
D8
CC
CC
C6
C6
00
00
ENDCHAR

STARTCHAR C4c
ENCODING 76
SWIDTH 1000 0
DWIDTH 8 0
BBX 8 14 0 -2
BITMAP
00
00
C0
C0
C0
C0
C0
C0
C0
C0
C0
FE
00
00
ENDCHAR

STARTCHAR C4d
ENCODING 77
SWIDTH 1000 0
DWIDTH 10 0
BBX 10 14 0 -2
BITMAP
0000
0000
C180
C180
E380
E380
F780
F780
DD80
DD80
C980
C980
0000
0000
ENDCHAR

STARTCHAR C4e
ENCODING 78
SWIDTH 1000 0
DWIDTH 8 0
BBX 8 14 0 -2
BITMAP
00
00
C6
E6
E6
F6
F6
DE
DE
CE
CE
C6
00
00
ENDCHAR

STARTCHAR C4f
ENCODING 79
SWIDTH 1000 0
DWIDTH 8 0
BBX 8 14 0 -2
BITMAP
00
00
38
6C
C6
C6
C6
C6
C6
C6
6C
38
00
00
ENDCHAR

STARTCHAR C50
ENCODING 80
SWIDTH 1000 0
DWIDTH 8 0
BBX 8 14 0 -2
BITMAP
00
00
F8
CC
C6
C6
CC
F8
C0
C0
C0
C0
00
00
ENDCHAR

STARTCHAR C51
ENCODING 81
SWIDTH 1000 0
DWIDTH 8 0
BBX 8 14 0 -2
BITMAP
00
00
38
6C
C6
C6
C6
C6
C6
DE
6C
3C
06
00
ENDCHAR

STARTCHAR C52
ENCODING 82
SWIDTH 1000 0
DWIDTH 8 0
BBX 8 14 0 -2
BITMAP
00
00
F8
CC
C6
C6
CC
F8
CC
CC
C6
C6
00
00
ENDCHAR

STARTCHAR C53
ENCODING 83
SWIDTH 1000 0
DWIDTH 8 0
BBX 8 14 0 -2
BITMAP
00
00
7C
C6
C6
C0
78
0C
06
C6
C6
7C
00
00
ENDCHAR

STARTCHAR C54
ENCODING 84
SWIDTH 1000 0
DWIDTH 9 0
BBX 9 14 0 -2
BITMAP
0000
0000
FF00
1800
1800
1800
1800
1800
1800
1800
1800
1800
0000
0000
ENDCHAR

STARTCHAR C55
ENCODING 85
SWIDTH 1000 0
DWIDTH 8 0
BBX 8 14 0 -2
BITMAP
00
00
C6
C6
C6
C6
C6
C6
C6
C6
6C
38
00
00
ENDCHAR

STARTCHAR C56
ENCODING 86
SWIDTH 1000 0
DWIDTH 8 0
BBX 8 14 0 -2
BITMAP
00
00
C6
C6
C6
C6
6C
6C
6C
6C
38
38
00
00
ENDCHAR

STARTCHAR C57
ENCODING 87
SWIDTH 1000 0
DWIDTH 10 0
BBX 10 14 0 -2
BITMAP
0000
0000
C180
C180
C980
C980
DD80
DD80
FF80
7F00
6300
6300
0000
0000
ENDCHAR

STARTCHAR C58
ENCODING 88
SWIDTH 1000 0
DWIDTH 8 0
BBX 8 14 0 -2
BITMAP
00
00
C6
C6
6C
6C
38
38
6C
6C
C6
C6
00
00
ENDCHAR

STARTCHAR C59
ENCODING 89
SWIDTH 1000 0
DWIDTH 9 0
BBX 9 14 0 -2
BITMAP
0000
0000
C300
C300
6600
6600
3C00
3C00
1800
1800
1800
1800
0000
0000
ENDCHAR

STARTCHAR C5a
ENCODING 90
SWIDTH 1000 0
DWIDTH 8 0
BBX 8 14 0 -2
BITMAP
00
00
FE
06
0C
18
18
30
30
60
C0
FE
00
00
ENDCHAR

STARTCHAR C5b
ENCODING 91
SWIDTH 1000 0
DWIDTH 5 0
BBX 5 14 0 -2
BITMAP
00
F0
C0
C0
C0
C0
C0
C0
C0
C0
C0
C0
F0
00
ENDCHAR

STARTCHAR C5c
ENCODING 92
SWIDTH 1000 0
DWIDTH 8 0
BBX 8 14 0 -2
BITMAP
00
00
C0
C0
60
60
30
18
0C
0C
06
06
00
00
ENDCHAR

STARTCHAR C5d
ENCODING 93
SWIDTH 1000 0
DWIDTH 5 0
BBX 5 14 0 -2
BITMAP
00
F0
30
30
30
30
30
30
30
30
30
30
F0
00
ENDCHAR

STARTCHAR C5e
ENCODING 94
SWIDTH 1000 0
DWIDTH 7 0
BBX 7 14 0 -2
BITMAP
00
00
30
78
CC
00
00
00
00
00
00
00
00
00
ENDCHAR

STARTCHAR C5f
ENCODING 95
SWIDTH 1000 0
DWIDTH 8 0
BBX 8 14 0 -2
BITMAP
00
00
00
00
00
00
00
00
00
00
00
00
FE
00
ENDCHAR

STARTCHAR C60
ENCODING 96
SWIDTH 1000 0
DWIDTH 4 0
BBX 4 14 0 -2
BITMAP
00
00
C0
C0
60
00
00
00
00
00
00
00
00
00
ENDCHAR

STARTCHAR C61
ENCODING 97
SWIDTH 1000 0
DWIDTH 7 0
BBX 7 14 0 -2
BITMAP
00
00
00
00
00
78
CC
0C
7C
CC
DC
7C
00
00
ENDCHAR

STARTCHAR C62
ENCODING 98
SWIDTH 1000 0
DWIDTH 7 0
BBX 7 14 0 -2
BITMAP
00
00
C0
C0
C0
F8
EC
CC
CC
CC
EC
F8
00
00
ENDCHAR

STARTCHAR C63
ENCODING 99
SWIDTH 1000 0
DWIDTH 7 0
BBX 7 14 0 -2
BITMAP
00
00
00
00
00
78
CC
C0
C0
C0
CC
78
00
00
ENDCHAR

STARTCHAR C64
ENCODING 100
SWIDTH 1000 0
DWIDTH 7 0
BBX 7 14 0 -2
BITMAP
00
00
0C
0C
0C
7C
DC
CC
CC
CC
DC
7C
00
00
ENDCHAR

STARTCHAR C65
ENCODING 101
SWIDTH 1000 0
DWIDTH 7 0
BBX 7 14 0 -2
BITMAP
00
00
00
00
00
78
CC
CC
FC
C0
C4
78
00
00
ENDCHAR

STARTCHAR C66
ENCODING 102
SWIDTH 1000 0
DWIDTH 7 0
BBX 7 14 0 -2
BITMAP
00
00
1C
30
30
30
FC
30
30
30
30
30
00
00
ENDCHAR

STARTCHAR C67
ENCODING 103
SWIDTH 1000 0
DWIDTH 8 0
BBX 8 14 0 -2
BITMAP
00
00
00
00
00
3E
6C
7C
30
7C
C6
C6
7C
00
ENDCHAR

STARTCHAR C68
ENCODING 104
SWIDTH 1000 0
DWIDTH 7 0
BBX 7 14 0 -2
BITMAP
00
00
C0
C0
C0
F8
EC
CC
CC
CC
CC
CC
00
00
ENDCHAR

STARTCHAR C69
ENCODING 105
SWIDTH 1000 0
DWIDTH 3 0
BBX 3 14 0 -2
BITMAP
00
00
C0
C0
00
C0
C0
C0
C0
C0
C0
C0
00
00
ENDCHAR

STARTCHAR C6a
ENCODING 106
SWIDTH 1000 0
DWIDTH 6 0
BBX 6 14 0 -2
BITMAP
00
00
18
18
00
18
18
18
18
18
D8
D8
70
00
ENDCHAR

STARTCHAR C6b
ENCODING 107
SWIDTH 1000 0
DWIDTH 7 0
BBX 7 14 0 -2
BITMAP
00
00
C0
C0
C0
CC
D8
F0
E0
F0
D8
CC
00
00
ENDCHAR

STARTCHAR C6c
ENCODING 108
SWIDTH 1000 0
DWIDTH 4 0
BBX 4 14 0 -2
BITMAP
00
00
E0
60
60
60
60
60
60
60
60
60
00
00
ENDCHAR

STARTCHAR C6d
ENCODING 109
SWIDTH 1000 0
DWIDTH 9 0
BBX 9 14 0 -2
BITMAP
0000
0000
0000
0000
0000
7E00
FF00
DB00
DB00
DB00
DB00
DB00
0000
0000
ENDCHAR

STARTCHAR C6e
ENCODING 110
SWIDTH 1000 0
DWIDTH 7 0
BBX 7 14 0 -2
BITMAP
00
00
00
00
00
F8
EC
CC
CC
CC
CC
CC
00
00
ENDCHAR

STARTCHAR C6f
ENCODING 111
SWIDTH 1000 0
DWIDTH 7 0
BBX 7 14 0 -2
BITMAP
00
00
00
00
00
78
CC
CC
CC
CC
CC
78
00
00
ENDCHAR

STARTCHAR C70
ENCODING 112
SWIDTH 1000 0
DWIDTH 7 0
BBX 7 14 0 -2
BITMAP
00
00
00
00
00
F8
EC
CC
CC
EC
F8
C0
C0
00
ENDCHAR

STARTCHAR C71
ENCODING 113
SWIDTH 1000 0
DWIDTH 7 0
BBX 7 14 0 -2
BITMAP
00
00
00
00
00
7C
DC
CC
CC
DC
7C
0C
0C
00
ENDCHAR

STARTCHAR C72
ENCODING 114
SWIDTH 1000 0
DWIDTH 7 0
BBX 7 14 0 -2
BITMAP
00
00
00
00
00
DC
FC
E0
C0
C0
C0
C0
00
00
ENDCHAR

STARTCHAR C73
ENCODING 115
SWIDTH 1000 0
DWIDTH 7 0
BBX 7 14 0 -2
BITMAP
00
00
00
00
00
78
CC
C0
78
0C
CC
78
00
00
ENDCHAR

STARTCHAR C74
ENCODING 116
SWIDTH 1000 0
DWIDTH 6 0
BBX 6 14 0 -2
BITMAP
00
00
00
60
60
F8
60
60
60
60
78
30
00
00
ENDCHAR

STARTCHAR C75
ENCODING 117
SWIDTH 1000 0
DWIDTH 7 0
BBX 7 14 0 -2
BITMAP
00
00
00
00
00
CC
CC
CC
CC
CC
DC
7C
00
00
ENDCHAR

STARTCHAR C76
ENCODING 118
SWIDTH 1000 0
DWIDTH 7 0
BBX 7 14 0 -2
BITMAP
00
00
00
00
00
CC
CC
CC
78
78
30
30
00
00
ENDCHAR

STARTCHAR C77
ENCODING 119
SWIDTH 1000 0
DWIDTH 9 0
BBX 9 14 0 -2
BITMAP
0000
0000
0000
0000
0000
C300
DB00
DB00
DB00
DB00
FF00
7E00
0000
0000
ENDCHAR

STARTCHAR C78
ENCODING 120
SWIDTH 1000 0
DWIDTH 7 0
BBX 7 14 0 -2
BITMAP
00
00
00
00
00
CC
78
78
30
78
78
CC
00
00
ENDCHAR

STARTCHAR C79
ENCODING 121
SWIDTH 1000 0
DWIDTH 7 0
BBX 7 14 0 -2
BITMAP
00
00
00
00
00
CC
CC
CC
CC
7C
0C
CC
78
00
ENDCHAR

STARTCHAR C7a
ENCODING 122
SWIDTH 1000 0
DWIDTH 7 0
BBX 7 14 0 -2
BITMAP
00
00
00
00
00
FC
0C
18
30
60
C0
FC
00
00
ENDCHAR

STARTCHAR C7b
ENCODING 123
SWIDTH 1000 0
DWIDTH 6 0
BBX 6 14 0 -2
BITMAP
00
18
30
60
60
60
30
E0
30
60
60
60
30
18
ENDCHAR

STARTCHAR C7c
ENCODING 124
SWIDTH 1000 0
DWIDTH 4 0
BBX 4 14 0 -2
BITMAP
00
00
C0
C0
C0
C0
C0
C0
C0
C0
C0
C0
C0
00
ENDCHAR

STARTCHAR C7d
ENCODING 125
SWIDTH 1000 0
DWIDTH 6 0
BBX 6 14 0 -2
BITMAP
00
C0
60
30
30
30
60
38
60
30
30
30
60
C0
ENDCHAR

STARTCHAR C7e
ENCODING 126
SWIDTH 1000 0
DWIDTH 8 0
BBX 8 14 0 -2
BITMAP
00
76
DC
00
00
00
00
00
00
00
00
00
00
00
ENDCHAR

STARTCHAR C7f
ENCODING 127
SWIDTH 1000 0
DWIDTH 4 0
BBX 4 14 0 -2
BITMAP
00
00
00
00
00
00
00
00
00
00
00
00
00
00
ENDCHAR

STARTCHAR C80
ENCODING 128
SWIDTH 1000 0
DWIDTH 4 0
BBX 4 14 0 -2
BITMAP
00
00
00
00
00
00
00
00
00
00
00
00
00
00
ENDCHAR

STARTCHAR C81
ENCODING 129
SWIDTH 1000 0
DWIDTH 4 0
BBX 4 14 0 -2
BITMAP
00
00
00
00
00
00
00
00
00
00
00
00
00
00
ENDCHAR

STARTCHAR C82
ENCODING 130
SWIDTH 1000 0
DWIDTH 4 0
BBX 4 14 0 -2
BITMAP
00
00
00
00
00
00
00
00
00
00
00
00
00
00
ENDCHAR

STARTCHAR C83
ENCODING 131
SWIDTH 1000 0
DWIDTH 4 0
BBX 4 14 0 -2
BITMAP
00
00
00
00
00
00
00
00
00
00
00
00
00
00
ENDCHAR

STARTCHAR C84
ENCODING 132
SWIDTH 1000 0
DWIDTH 4 0
BBX 4 14 0 -2
BITMAP
00
00
00
00
00
00
00
00
00
00
00
00
00
00
ENDCHAR

STARTCHAR C85
ENCODING 133
SWIDTH 1000 0
DWIDTH 4 0
BBX 4 14 0 -2
BITMAP
00
00
00
00
00
00
00
00
00
00
00
00
00
00
ENDCHAR

STARTCHAR C86
ENCODING 134
SWIDTH 1000 0
DWIDTH 4 0
BBX 4 14 0 -2
BITMAP
00
00
00
00
00
00
00
00
00
00
00
00
00
00
ENDCHAR

STARTCHAR C87
ENCODING 135
SWIDTH 1000 0
DWIDTH 4 0
BBX 4 14 0 -2
BITMAP
00
00
00
00
00
00
00
00
00
00
00
00
00
00
ENDCHAR

STARTCHAR C88
ENCODING 136
SWIDTH 1000 0
DWIDTH 4 0
BBX 4 14 0 -2
BITMAP
00
00
00
00
00
00
00
00
00
00
00
00
00
00
ENDCHAR

STARTCHAR C89
ENCODING 137
SWIDTH 1000 0
DWIDTH 4 0
BBX 4 14 0 -2
BITMAP
00
00
00
00
00
00
00
00
00
00
00
00
00
00
ENDCHAR

STARTCHAR C8a
ENCODING 138
SWIDTH 1000 0
DWIDTH 4 0
BBX 4 14 0 -2
BITMAP
00
00
00
00
00
00
00
00
00
00
00
00
00
00
ENDCHAR

STARTCHAR C8b
ENCODING 139
SWIDTH 1000 0
DWIDTH 4 0
BBX 4 14 0 -2
BITMAP
00
00
00
00
00
00
00
00
00
00
00
00
00
00
ENDCHAR

STARTCHAR C8c
ENCODING 140
SWIDTH 1000 0
DWIDTH 4 0
BBX 4 14 0 -2
BITMAP
00
00
00
00
00
00
00
00
00
00
00
00
00
00
ENDCHAR

STARTCHAR C8d
ENCODING 141
SWIDTH 1000 0
DWIDTH 4 0
BBX 4 14 0 -2
BITMAP
00
00
00
00
00
00
00
00
00
00
00
00
00
00
ENDCHAR

STARTCHAR C8e
ENCODING 142
SWIDTH 1000 0
DWIDTH 4 0
BBX 4 14 0 -2
BITMAP
00
00
00
00
00
00
00
00
00
00
00
00
00
00
ENDCHAR

STARTCHAR C8f
ENCODING 143
SWIDTH 1000 0
DWIDTH 4 0
BBX 4 14 0 -2
BITMAP
00
00
00
00
00
00
00
00
00
00
00
00
00
00
ENDCHAR

STARTCHAR C90
ENCODING 144
SWIDTH 1000 0
DWIDTH 4 0
BBX 4 14 0 -2
BITMAP
00
00
00
00
00
00
00
00
00
00
00
00
00
00
ENDCHAR

STARTCHAR C91
ENCODING 145
SWIDTH 1000 0
DWIDTH 4 0
BBX 4 14 0 -2
BITMAP
00
00
00
00
00
00
00
00
00
00
00
00
00
00
ENDCHAR

STARTCHAR C92
ENCODING 146
SWIDTH 1000 0
DWIDTH 4 0
BBX 4 14 0 -2
BITMAP
00
00
00
00
00
00
00
00
00
00
00
00
00
00
ENDCHAR

STARTCHAR C93
ENCODING 147
SWIDTH 1000 0
DWIDTH 4 0
BBX 4 14 0 -2
BITMAP
00
00
00
00
00
00
00
00
00
00
00
00
00
00
ENDCHAR

STARTCHAR C94
ENCODING 148
SWIDTH 1000 0
DWIDTH 4 0
BBX 4 14 0 -2
BITMAP
00
00
00
00
00
00
00
00
00
00
00
00
00
00
ENDCHAR

STARTCHAR C95
ENCODING 149
SWIDTH 1000 0
DWIDTH 4 0
BBX 4 14 0 -2
BITMAP
00
00
00
00
00
00
00
00
00
00
00
00
00
00
ENDCHAR

STARTCHAR C96
ENCODING 150
SWIDTH 1000 0
DWIDTH 4 0
BBX 4 14 0 -2
BITMAP
00
00
00
00
00
00
00
00
00
00
00
00
00
00
ENDCHAR

STARTCHAR C97
ENCODING 151
SWIDTH 1000 0
DWIDTH 4 0
BBX 4 14 0 -2
BITMAP
00
00
00
00
00
00
00
00
00
00
00
00
00
00
ENDCHAR

STARTCHAR C98
ENCODING 152
SWIDTH 1000 0
DWIDTH 4 0
BBX 4 14 0 -2
BITMAP
00
00
00
00
00
00
00
00
00
00
00
00
00
00
ENDCHAR

STARTCHAR C99
ENCODING 153
SWIDTH 1000 0
DWIDTH 4 0
BBX 4 14 0 -2
BITMAP
00
00
00
00
00
00
00
00
00
00
00
00
00
00
ENDCHAR

STARTCHAR C9a
ENCODING 154
SWIDTH 1000 0
DWIDTH 4 0
BBX 4 14 0 -2
BITMAP
00
00
00
00
00
00
00
00
00
00
00
00
00
00
ENDCHAR

STARTCHAR C9b
ENCODING 155
SWIDTH 1000 0
DWIDTH 4 0
BBX 4 14 0 -2
BITMAP
00
00
00
00
00
00
00
00
00
00
00
00
00
00
ENDCHAR

STARTCHAR C9c
ENCODING 156
SWIDTH 1000 0
DWIDTH 4 0
BBX 4 14 0 -2
BITMAP
00
00
00
00
00
00
00
00
00
00
00
00
00
00
ENDCHAR

STARTCHAR C9d
ENCODING 157
SWIDTH 1000 0
DWIDTH 4 0
BBX 4 14 0 -2
BITMAP
00
00
00
00
00
00
00
00
00
00
00
00
00
00
ENDCHAR

STARTCHAR C9e
ENCODING 158
SWIDTH 1000 0
DWIDTH 4 0
BBX 4 14 0 -2
BITMAP
00
00
00
00
00
00
00
00
00
00
00
00
00
00
ENDCHAR

STARTCHAR C9f
ENCODING 159
SWIDTH 1000 0
DWIDTH 4 0
BBX 4 14 0 -2
BITMAP
00
00
00
00
00
00
00
00
00
00
00
00
00
00
ENDCHAR

STARTCHAR Ca0
ENCODING 160
SWIDTH 1000 0
DWIDTH 4 0
BBX 4 14 0 -2
BITMAP
00
00
00
00
00
00
00
00
00
00
00
00
00
00
ENDCHAR

STARTCHAR Ca1
ENCODING 161
SWIDTH 1000 0
DWIDTH 4 0
BBX 4 14 0 -2
BITMAP
00
00
C0
C0
00
C0
C0
C0
C0
C0
C0
C0
00
00
ENDCHAR

STARTCHAR Ca2
ENCODING 162
SWIDTH 1000 0
DWIDTH 7 0
BBX 7 14 0 -2
BITMAP
00
00
30
30
78
CC
C0
C0
C0
CC
78
30
30
00
ENDCHAR

STARTCHAR Ca3
ENCODING 163
SWIDTH 1000 0
DWIDTH 8 0
BBX 8 14 0 -2
BITMAP
00
00
18
3C
3C
30
30
F8
30
30
7E
EC
00
00
ENDCHAR

STARTCHAR Ca4
ENCODING 164
SWIDTH 1000 0
DWIDTH 8 0
BBX 8 14 0 -2
BITMAP
00
00
00
00
EE
38
6C
6C
38
EE
00
00
00
00
ENDCHAR

STARTCHAR Ca5
ENCODING 165
SWIDTH 1000 0
DWIDTH 7 0
BBX 7 14 0 -2
BITMAP
00
00
CC
CC
78
FC
30
30
FC
30
30
30
00
00
ENDCHAR

STARTCHAR Ca6
ENCODING 166
SWIDTH 1000 0
DWIDTH 4 0
BBX 4 14 0 -2
BITMAP
00
00
C0
C0
C0
C0
00
00
C0
C0
C0
C0
00
00
ENDCHAR

STARTCHAR Ca7
ENCODING 167
SWIDTH 1000 0
DWIDTH 7 0
BBX 7 14 0 -2
BITMAP
00
00
78
CC
C0
78
CC
CC
78
0C
CC
78
00
00
ENDCHAR

STARTCHAR Ca8
ENCODING 168
SWIDTH 1000 0
DWIDTH 5 0
BBX 5 14 0 -2
BITMAP
00
00
F0
F0
00
00
00
00
00
00
00
00
00
00
ENDCHAR

STARTCHAR Ca9
ENCODING 169
SWIDTH 1000 0
DWIDTH 10 0
BBX 10 14 0 -2
BITMAP
0000
0000
1C00
6300
C980
D580
D180
D180
D580
C980
6300
1C00
0000
0000
ENDCHAR

STARTCHAR Caa
ENCODING 170
SWIDTH 1000 0
DWIDTH 7 0
BBX 7 14 0 -2
BITMAP
00
70
18
78
D8
7C
00
FC
00
00
00
00
00
00
ENDCHAR

STARTCHAR Cab
ENCODING 171
SWIDTH 1000 0
DWIDTH 8 0
BBX 8 14 0 -2
BITMAP
00
00
00
00
00
36
6C
D8
6C
36
00
00
00
00
ENDCHAR

STARTCHAR Cac
ENCODING 172
SWIDTH 1000 0
DWIDTH 8 0
BBX 8 14 0 -2
BITMAP
00
00
00
00
00
00
FE
06
06
00
00
00
00
00
ENDCHAR

STARTCHAR Cad
ENCODING 173
SWIDTH 1000 0
DWIDTH 7 0
BBX 7 14 0 -2
BITMAP
00
00
00
00
00
00
FC
00
00
00
00
00
00
00
ENDCHAR

STARTCHAR Cae
ENCODING 174
SWIDTH 1000 0
DWIDTH 10 0
BBX 10 14 0 -2
BITMAP
0000
0000
1C00
6300
D980
D580
D580
D980
D580
D580
6300
1C00
0000
0000
ENDCHAR

STARTCHAR Caf
ENCODING 175
SWIDTH 1000 0
DWIDTH 7 0
BBX 7 14 0 -2
BITMAP
00
FC
00
00
00
00
00
00
00
00
00
00
00
00
ENDCHAR

STARTCHAR Cb0
ENCODING 176
SWIDTH 1000 0
DWIDTH 6 0
BBX 6 14 0 -2
BITMAP
00
70
D8
D8
70
00
00
00
00
00
00
00
00
00
ENDCHAR

STARTCHAR Cb1
ENCODING 177
SWIDTH 1000 0
DWIDTH 7 0
BBX 7 14 0 -2
BITMAP
00
00
00
00
30
30
FC
30
30
00
FC
00
00
00
ENDCHAR

STARTCHAR Cb2
ENCODING 178
SWIDTH 1000 0
DWIDTH 6 0
BBX 6 14 0 -2
BITMAP
00
70
D8
30
60
F8
00
00
00
00
00
00
00
00
ENDCHAR

STARTCHAR Cb3
ENCODING 179
SWIDTH 1000 0
DWIDTH 6 0
BBX 6 14 0 -2
BITMAP
00
70
D8
30
D8
70
00
00
00
00
00
00
00
00
ENDCHAR

STARTCHAR Cb4
ENCODING 180
SWIDTH 1000 0
DWIDTH 5 0
BBX 5 14 0 -2
BITMAP
00
00
70
C0
00
00
00
00
00
00
00
00
00
00
ENDCHAR

STARTCHAR Cb5
ENCODING 181
SWIDTH 1000 0
DWIDTH 8 0
BBX 8 14 0 -2
BITMAP
00
00
00
00
00
1E
36
3C
6C
78
FE
C0
00
00
ENDCHAR

STARTCHAR Cb6
ENCODING 182
SWIDTH 1000 0
DWIDTH 8 0
BBX 8 14 0 -2
BITMAP
00
00
76
F4
F4
F4
74
14
14
14
14
14
00
00
ENDCHAR

STARTCHAR Cb7
ENCODING 183
SWIDTH 1000 0
DWIDTH 4 0
BBX 4 14 0 -2
BITMAP
00
00
00
00
00
E0
E0
00
00
00
00
00
00
00
ENDCHAR

STARTCHAR Cb8
ENCODING 184
SWIDTH 1000 0
DWIDTH 5 0
BBX 5 14 0 -2
BITMAP
00
00
00
00
00
00
00
00
00
00
00
70
C0
00
ENDCHAR

STARTCHAR Cb9
ENCODING 185
SWIDTH 1000 0
DWIDTH 5 0
BBX 5 14 0 -2
BITMAP
00
60
E0
60
60
F0
00
00
00
00
00
00
00
00
ENDCHAR

STARTCHAR Cba
ENCODING 186
SWIDTH 1000 0
DWIDTH 6 0
BBX 6 14 0 -2
BITMAP
00
70
D8
D8
D8
70
00
F8
00
00
00
00
00
00
ENDCHAR

STARTCHAR Cbb
ENCODING 187
SWIDTH 1000 0
DWIDTH 8 0
BBX 8 14 0 -2
BITMAP
00
00
00
00
00
D8
6C
36
6C
D8
00
00
00
00
ENDCHAR

STARTCHAR Cbc
ENCODING 188
SWIDTH 1000 0
DWIDTH 8 0
BBX 8 14 0 -2
BITMAP
00
60
E0
60
66
FC
18
3C
7C
FC
3E
0C
00
00
ENDCHAR

STARTCHAR Cbd
ENCODING 189
SWIDTH 1000 0
DWIDTH 8 0
BBX 8 14 0 -2
BITMAP
00
60
E0
60
66
FC
18
3E
7E
C6
0C
1E
00
00
ENDCHAR

STARTCHAR Cbe
ENCODING 190
SWIDTH 1000 0
DWIDTH 8 0
BBX 8 14 0 -2
BITMAP
00
70
18
70
1E
7C
18
3C
7C
FC
3E
0C
00
00
ENDCHAR

STARTCHAR Cbf
ENCODING 191
SWIDTH 1000 0
DWIDTH 7 0
BBX 7 14 0 -2
BITMAP
00
00
30
30
00
30
30
60
CC
CC
CC
78
00
00
ENDCHAR

STARTCHAR Cc0
ENCODING 192
SWIDTH 1000 0
DWIDTH 7 0
BBX 7 14 0 -2
BITMAP
00
70
18
00
30
78
CC
CC
FC
CC
CC
CC
00
00
ENDCHAR

STARTCHAR Cc1
ENCODING 193
SWIDTH 1000 0
DWIDTH 7 0
BBX 7 14 0 -2
BITMAP
00
38
60
00
30
78
CC
CC
FC
CC
CC
CC
00
00
ENDCHAR

STARTCHAR Cc2
ENCODING 194
SWIDTH 1000 0
DWIDTH 7 0
BBX 7 14 0 -2
BITMAP
00
30
78
00
30
78
CC
CC
FC
CC
CC
CC
00
00
ENDCHAR

STARTCHAR Cc3
ENCODING 195
SWIDTH 1000 0
DWIDTH 7 0
BBX 7 14 0 -2
BITMAP
00
7C
D8
00
30
78
CC
CC
FC
CC
CC
CC
00
00
ENDCHAR

STARTCHAR Cc4
ENCODING 196
SWIDTH 1000 0
DWIDTH 7 0
BBX 7 14 0 -2
BITMAP
00
78
78
00
30
78
CC
CC
FC
CC
CC
CC
00
00
ENDCHAR

STARTCHAR Cc5
ENCODING 197
SWIDTH 1000 0
DWIDTH 7 0
BBX 7 14 0 -2
BITMAP
00
30
30
00
30
78
CC
CC
FC
CC
CC
CC
00
00
ENDCHAR

STARTCHAR Cc6
ENCODING 198
SWIDTH 1000 0
DWIDTH 8 0
BBX 8 14 0 -2
BITMAP
00
00
3E
78
D8
D8
DE
F8
D8
D8
D8
DE
00
00
ENDCHAR

STARTCHAR Cc7
ENCODING 199
SWIDTH 1000 0
DWIDTH 8 0
BBX 8 14 0 -2
BITMAP
00
00
38
6C
C6
C0
C0
C0
C6
6C
38
0C
38
00
ENDCHAR

STARTCHAR Cc8
ENCODING 200
SWIDTH 1000 0
DWIDTH 7 0
BBX 7 14 0 -2
BITMAP
00
70
18
00
FC
C0
C0
F8
C0
C0
C0
FC
00
00
ENDCHAR

STARTCHAR Cc9
ENCODING 201
SWIDTH 1000 0
DWIDTH 7 0
BBX 7 14 0 -2
BITMAP
00
38
60
00
FC
C0
C0
F8
C0
C0
C0
FC
00
00
ENDCHAR

STARTCHAR Cca
ENCODING 202
SWIDTH 1000 0
DWIDTH 7 0
BBX 7 14 0 -2
BITMAP
00
30
78
00
FC
C0
C0
F8
C0
C0
C0
FC
00
00
ENDCHAR

STARTCHAR Ccb
ENCODING 203
SWIDTH 1000 0
DWIDTH 7 0
BBX 7 14 0 -2
BITMAP
00
78
78
00
FC
C0
C0
F8
C0
C0
C0
FC
00
00
ENDCHAR

STARTCHAR Ccc
ENCODING 204
SWIDTH 1000 0
DWIDTH 5 0
BBX 5 14 0 -2
BITMAP
00
E0
30
00
F0
60
60
60
60
60
60
F0
00
00
ENDCHAR

STARTCHAR Ccd
ENCODING 205
SWIDTH 1000 0
DWIDTH 5 0
BBX 5 14 0 -2
BITMAP
00
70
C0
00
F0
60
60
60
60
60
60
F0
00
00
ENDCHAR

STARTCHAR Cce
ENCODING 206
SWIDTH 1000 0
DWIDTH 5 0
BBX 5 14 0 -2
BITMAP
00
60
F0
00
F0
60
60
60
60
60
60
F0
00
00
ENDCHAR

STARTCHAR Ccf
ENCODING 207
SWIDTH 1000 0
DWIDTH 5 0
BBX 5 14 0 -2
BITMAP
00
F0
F0
00
F0
60
60
60
60
60
60
F0
00
00
ENDCHAR

STARTCHAR Cd0
ENCODING 208
SWIDTH 1000 0
DWIDTH 8 0
BBX 8 14 0 -2
BITMAP
00
00
F8
64
66
66
F6
66
66
66
64
F8
00
00
ENDCHAR

STARTCHAR Cd1
ENCODING 209
SWIDTH 1000 0
DWIDTH 7 0
BBX 7 14 0 -2
BITMAP
00
7C
D8
00
CC
EC
EC
FC
FC
DC
DC
CC
00
00
ENDCHAR

STARTCHAR Cd2
ENCODING 210
SWIDTH 1000 0
DWIDTH 7 0
BBX 7 14 0 -2
BITMAP
00
70
18
00
78
CC
CC
CC
CC
CC
CC
78
00
00
ENDCHAR

STARTCHAR Cd3
ENCODING 211
SWIDTH 1000 0
DWIDTH 7 0
BBX 7 14 0 -2
BITMAP
00
38
60
00
78
CC
CC
CC
CC
CC
CC
78
00
00
ENDCHAR

STARTCHAR Cd4
ENCODING 212
SWIDTH 1000 0
DWIDTH 7 0
BBX 7 14 0 -2
BITMAP
00
30
78
00
78
CC
CC
CC
CC
CC
CC
78
00
00
ENDCHAR

STARTCHAR Cd5
ENCODING 213
SWIDTH 1000 0
DWIDTH 7 0
BBX 7 14 0 -2
BITMAP
00
7C
D8
00
78
CC
CC
CC
CC
CC
CC
78
00
00
ENDCHAR

STARTCHAR Cd6
ENCODING 214
SWIDTH 1000 0
DWIDTH 7 0
BBX 7 14 0 -2
BITMAP
00
78
78
00
78
CC
CC
CC
CC
CC
CC
78
00
00
ENDCHAR

STARTCHAR Cd7
ENCODING 215
SWIDTH 1000 0
DWIDTH 7 0
BBX 7 14 0 -2
BITMAP
00
00
00
00
CC
78
30
30
78
CC
00
00
00
00
ENDCHAR

STARTCHAR Cd8
ENCODING 216
SWIDTH 1000 0
DWIDTH 8 0
BBX 8 14 0 -2
BITMAP
00
00
00
04
7C
CE
CE
D6
D6
E6
E6
7C
40
00
ENDCHAR

STARTCHAR Cd9
ENCODING 217
SWIDTH 1000 0
DWIDTH 7 0
BBX 7 14 0 -2
BITMAP
00
70
18
00
CC
CC
CC
CC
CC
CC
CC
78
00
00
ENDCHAR

STARTCHAR Cda
ENCODING 218
SWIDTH 1000 0
DWIDTH 7 0
BBX 7 14 0 -2
BITMAP
00
38
60
00
CC
CC
CC
CC
CC
CC
CC
78
00
00
ENDCHAR

STARTCHAR Cdb
ENCODING 219
SWIDTH 1000 0
DWIDTH 7 0
BBX 7 14 0 -2
BITMAP
00
30
78
00
CC
CC
CC
CC
CC
CC
CC
78
00
00
ENDCHAR

STARTCHAR Cdc
ENCODING 220
SWIDTH 1000 0
DWIDTH 7 0
BBX 7 14 0 -2
BITMAP
00
78
78
00
CC
CC
CC
CC
CC
CC
CC
78
00
00
ENDCHAR

STARTCHAR Cdd
ENCODING 221
SWIDTH 1000 0
DWIDTH 7 0
BBX 7 14 0 -2
BITMAP
00
38
60
00
CC
CC
78
30
30
30
30
30
00
00
ENDCHAR

STARTCHAR Cde
ENCODING 222
SWIDTH 1000 0
DWIDTH 7 0
BBX 7 14 0 -2
BITMAP
00
00
F0
60
78
6C
6C
6C
78
60
60
F0
00
00
ENDCHAR

STARTCHAR Cdf
ENCODING 223
SWIDTH 1000 0
DWIDTH 8 0
BBX 8 14 0 -2
BITMAP
00
00
1C
36
36
36
3C
66
66
66
F6
DC
C0
00
ENDCHAR

STARTCHAR Ce0
ENCODING 224
SWIDTH 1000 0
DWIDTH 7 0
BBX 7 14 0 -2
BITMAP
00
00
70
18
00
78
CC
0C
7C
CC
DC
7C
00
00
ENDCHAR

STARTCHAR Ce1
ENCODING 225
SWIDTH 1000 0
DWIDTH 7 0
BBX 7 14 0 -2
BITMAP
00
00
38
60
00
78
CC
0C
7C
CC
DC
7C
00
00
ENDCHAR

STARTCHAR Ce2
ENCODING 226
SWIDTH 1000 0
DWIDTH 7 0
BBX 7 14 0 -2
BITMAP
00
00
30
78
00
78
CC
0C
7C
CC
DC
7C
00
00
ENDCHAR

STARTCHAR Ce3
ENCODING 227
SWIDTH 1000 0
DWIDTH 7 0
BBX 7 14 0 -2
BITMAP
00
00
7C
D8
00
78
CC
0C
7C
CC
DC
7C
00
00
ENDCHAR

STARTCHAR Ce4
ENCODING 228
SWIDTH 1000 0
DWIDTH 7 0
BBX 7 14 0 -2
BITMAP
00
00
78
78
00
78
CC
0C
7C
CC
DC
7C
00
00
ENDCHAR

STARTCHAR Ce5
ENCODING 229
SWIDTH 1000 0
DWIDTH 7 0
BBX 7 14 0 -2
BITMAP
00
00
30
30
00
78
CC
0C
7C
CC
DC
7C
00
00
ENDCHAR

STARTCHAR Ce6
ENCODING 230
SWIDTH 1000 0
DWIDTH 9 0
BBX 9 14 0 -2
BITMAP
0000
0000
0000
0000
0000
7E00
1B00
1B00
7F00
D800
D900
7E00
0000
0000
ENDCHAR

STARTCHAR Ce7
ENCODING 231
SWIDTH 1000 0
DWIDTH 7 0
BBX 7 14 0 -2
BITMAP
00
00
00
00
00
78
CC
C0
C0
CC
78
0C
78
00
ENDCHAR

STARTCHAR Ce8
ENCODING 232
SWIDTH 1000 0
DWIDTH 7 0
BBX 7 14 0 -2
BITMAP
00
00
70
18
00
78
CC
CC
FC
C0
C0
78
00
00
ENDCHAR

STARTCHAR Ce9
ENCODING 233
SWIDTH 1000 0
DWIDTH 7 0
BBX 7 14 0 -2
BITMAP
00
00
38
60
00
78
CC
CC
FC
C0
C0
78
00
00
ENDCHAR

STARTCHAR Cea
ENCODING 234
SWIDTH 1000 0
DWIDTH 7 0
BBX 7 14 0 -2
BITMAP
00
00
30
78
00
78
CC
CC
FC
C0
C0
78
00
00
ENDCHAR

STARTCHAR Ceb
ENCODING 235
SWIDTH 1000 0
DWIDTH 7 0
BBX 7 14 0 -2
BITMAP
00
00
78
78
00
78
CC
CC
FC
C0
C0
78
00
00
ENDCHAR

STARTCHAR Cec
ENCODING 236
SWIDTH 1000 0
DWIDTH 5 0
BBX 5 14 0 -2
BITMAP
00
00
E0
30
00
00
60
60
60
60
60
60
00
00
ENDCHAR

STARTCHAR Ced
ENCODING 237
SWIDTH 1000 0
DWIDTH 5 0
BBX 5 14 0 -2
BITMAP
00
00
70
C0
00
00
60
60
60
60
60
60
00
00
ENDCHAR

STARTCHAR Cee
ENCODING 238
SWIDTH 1000 0
DWIDTH 5 0
BBX 5 14 0 -2
BITMAP
00
00
60
F0
00
00
60
60
60
60
60
60
00
00
ENDCHAR

STARTCHAR Cef
ENCODING 239
SWIDTH 1000 0
DWIDTH 5 0
BBX 5 14 0 -2
BITMAP
00
00
F0
F0
00
00
60
60
60
60
60
60
00
00
ENDCHAR

STARTCHAR Cf0
ENCODING 240
SWIDTH 1000 0
DWIDTH 7 0
BBX 7 14 0 -2
BITMAP
00
00
EC
38
70
18
78
CC
CC
CC
CC
78
00
00
ENDCHAR

STARTCHAR Cf1
ENCODING 241
SWIDTH 1000 0
DWIDTH 7 0
BBX 7 14 0 -2
BITMAP
00
00
7C
D8
00
F8
EC
CC
CC
CC
CC
CC
00
00
ENDCHAR

STARTCHAR Cf2
ENCODING 242
SWIDTH 1000 0
DWIDTH 7 0
BBX 7 14 0 -2
BITMAP
00
00
70
18
00
78
CC
CC
CC
CC
CC
78
00
00
ENDCHAR

STARTCHAR Cf3
ENCODING 243
SWIDTH 1000 0
DWIDTH 7 0
BBX 7 14 0 -2
BITMAP
00
00
38
60
00
78
CC
CC
CC
CC
CC
78
00
00
ENDCHAR

STARTCHAR Cf4
ENCODING 244
SWIDTH 1000 0
DWIDTH 7 0
BBX 7 14 0 -2
BITMAP
00
00
30
78
00
78
CC
CC
CC
CC
CC
78
00
00
ENDCHAR

STARTCHAR Cf5
ENCODING 245
SWIDTH 1000 0
DWIDTH 7 0
BBX 7 14 0 -2
BITMAP
00
00
7C
D8
00
78
CC
CC
CC
CC
CC
78
00
00
ENDCHAR

STARTCHAR Cf6
ENCODING 246
SWIDTH 1000 0
DWIDTH 7 0
BBX 7 14 0 -2
BITMAP
00
00
78
78
00
78
CC
CC
CC
CC
CC
78
00
00
ENDCHAR

STARTCHAR Cf7
ENCODING 247
SWIDTH 1000 0
DWIDTH 8 0
BBX 8 14 0 -2
BITMAP
00
00
00
00
38
38
00
FE
00
38
38
00
00
00
ENDCHAR

STARTCHAR Cf8
ENCODING 248
SWIDTH 1000 0
DWIDTH 9 0
BBX 9 14 0 -2
BITMAP
0000
0000
0000
0000
0000
3F00
6600
6E00
7E00
7600
6600
FC00
0000
0000
ENDCHAR

STARTCHAR Cf9
ENCODING 249
SWIDTH 1000 0
DWIDTH 7 0
BBX 7 14 0 -2
BITMAP
00
00
70
18
00
CC
CC
CC
CC
CC
DC
7C
00
00
ENDCHAR

STARTCHAR Cfa
ENCODING 250
SWIDTH 1000 0
DWIDTH 7 0
BBX 7 14 0 -2
BITMAP
00
00
38
60
00
CC
CC
CC
CC
CC
DC
7C
00
00
ENDCHAR

STARTCHAR Cfb
ENCODING 251
SWIDTH 1000 0
DWIDTH 7 0
BBX 7 14 0 -2
BITMAP
00
00
30
78
00
CC
CC
CC
CC
CC
DC
7C
00
00
ENDCHAR

STARTCHAR Cfc
ENCODING 252
SWIDTH 1000 0
DWIDTH 7 0
BBX 7 14 0 -2
BITMAP
00
00
78
78
00
CC
CC
CC
CC
CC
DC
7C
00
00
ENDCHAR

STARTCHAR Cfd
ENCODING 253
SWIDTH 1000 0
DWIDTH 7 0
BBX 7 14 0 -2
BITMAP
00
00
38
60
00
CC
CC
CC
CC
7C
0C
CC
78
00
ENDCHAR

STARTCHAR Cfe
ENCODING 254
SWIDTH 1000 0
DWIDTH 7 0
BBX 7 14 0 -2
BITMAP
00
00
00
00
00
C0
F8
CC
CC
F8
C0
C0
C0
00
ENDCHAR

STARTCHAR Cff
ENCODING 255
SWIDTH 1000 0
DWIDTH 7 0
BBX 7 14 0 -2
BITMAP
00
00
78
78
00
CC
CC
CC
CC
7C
0C
CC
78
00
ENDCHAR
ENDFONT
